<svg data-v-6805eed4="" version="1.0" xmlns="http://www.w3.org/2000/svg" xmlns:xlink="http://www.w3.org/1999/xlink" width="100%" height="100%" viewBox="0 0 340.000000 250.000000" preserveAspectRatio="xMidYMid meet" color-interpolation-filters="sRGB" style="margin: auto;"> <rect data-v-6805eed4="" x="0" y="0" width="100%" height="100%" fill="#fff" fill-opacity="1" class="background"></rect> <rect data-v-6805eed4="" x="0" y="0" width="100%" height="100%" fill="url(#watermark)" fill-opacity="1" class="watermarklayer"></rect> <g data-v-6805eed4="" fill="#333" class="icon-text-wrapper icon-svg-group iconsvg" transform="translate(81.38500213623047,79.32466888427734)"><g class="iconsvg-imagesvg" transform="translate(58.61499786376953,0)"><g><rect fill="#333" fill-opacity="0" stroke-width="2" x="0" y="0" width="60" height="62.50065104844842" class="image-rect"></rect> <svg x="0" y="0" width="60" height="62.50065104844842" filtersec="colorsb7472905811" class="image-svg-svg primary" style="overflow: visible;"><svg xmlns="http://www.w3.org/2000/svg" viewBox="-0.009432070888578892 -0.0007219910621643066 98.13411712646484 102.22358703613281"><title>资源 158</title><path d="M97.61 27.18c.75 1.32.38 2.77.4 4.15.06 5.16-.07 10.32.1 15.47a8.13 8.13 0 0 1-4 7.5c-4.16 2.76-8.9 4.07-13.56 5.58-6.87 2.24-13.92 4-20.53 7a37.16 37.16 0 0 0-11 7c0-5.84.41-11-.11-16-.58-5.69 2-8.8 6.69-11.2 7.81-4 16.09-6.72 24.43-9.3.9-.28 2-.2 2.53-1.33a6.12 6.12 0 0 0 3.07-.72 37 37 0 0 0 11.98-8.15zM.54 74.91c-.75-.67-.42-1.56-.43-2.35 0-5.65.08-11.32-.1-17a8.29 8.29 0 0 1 4.31-7.85c4.57-2.87 9.72-4.26 14.79-5.87 7.21-2.29 14.56-4.16 21.37-7.59a33.13 33.13 0 0 0 8-5.34c.9.55.57 1.29.57 1.88 0 5.41-.12 10.83.07 16.23a7 7 0 0 1-3.37 6.49c-5.45 3.83-11.68 6-17.85 8.21-3.6 1.3-7.28 2.34-10.93 3.49-.61.2-1.39.13-1.5 1a6.62 6.62 0 0 0-3.07.79A38.26 38.26 0 0 0 .54 74.91zM48.61 80.1c6.21-7.42 15.27-9.22 23.82-12C78 66.27 83.7 64.57 89 62a24.45 24.45 0 0 0 8.49-6.39c.87.49.52 1.24.52 1.82 0 5.74-.12 11.49 0 17.22a7.45 7.45 0 0 1-3.8 7c-4 2.59-8.55 4.07-13 5.56-7.18 2.38-14.5 4.34-21.52 7.19-4 1.6-7.65 3.62-10.43 7-.57-6.16-.1-12.33-.25-18.49-.01-.91.22-1.91-.4-2.81zM49.49 22.1C43.82 29 35.54 31 27.59 33.53 22.28 35.23 17 36.83 11.8 39c-4.26 1.74-8.22 4-11.21 7.6-.87-.51-.52-1.26-.52-1.84v-18a6.34 6.34 0 0 1 2.6-5.37c3.8-3 8.36-4.41 12.82-6 7.44-2.63 15.14-4.5 22.46-7.49 4.12-1.68 8-3.67 10.88-7.19.56 6.14.1 12.3.25 18.44a5.11 5.11 0 0 0 .41 2.95z" fill="#2c86d8"></path><path d="M49.49 22.1a5.11 5.11 0 0 1-.43-2.91c-.15-6.14.31-12.3-.25-18.44.2-.38.17-1.13.93-.52C58.12 7 68.31 9.94 78.15 13.62c3.88 1.45 7.71 3 11.51 4.67A19.28 19.28 0 0 1 96 22.54c1.22 1.27 2.33 2.66 1.57 4.64a37 37 0 0 1-12 8.07 6.12 6.12 0 0 1-3.07.72c-6.78-2.22-13.85-3.41-20.51-6a34.78 34.78 0 0 1-12.5-7.87zM48.61 80.1c.62.88.43 1.89.45 2.87.15 6.16-.32 12.33.25 18.49-.19.38-.19 1.14-.93.54-8.87-7.19-19.73-10.1-30.12-14-3.58-1.35-7.13-2.73-10.56-4.43a18.77 18.77 0 0 1-5.86-4.15c-1.15-1.28-2-2.67-1.3-4.51A38.26 38.26 0 0 1 12.4 67a6.62 6.62 0 0 1 3.08-.76c6.33 2 12.88 3.21 19.14 5.48 5.21 1.93 10.06 4.37 13.99 8.38z" fill="#04153e"></path></svg></svg> <!----></g></g> <g transform="translate(0,69.50065231323242)"><g data-gra="path-name" fill-rule="" class="tp-name iconsvg-namesvg"><g transform="scale(1)"><g><path d="M1.85 0L1.85-21.54 14.15-21.54Q17.17-21.54 18.58-20.17 20-18.8 20-16L20-16Q20-14.15 19.2-13 18.4-11.85 17.23-11.38L17.23-11.38Q19.72-10.71 20.62-8.06L20.62-8.06Q20.92-7.11 20.92-5.85L20.92-5.85Q20.92-2.83 19.51-1.42 18.09 0 15.08 0L15.08 0 1.85 0ZM15.38-6.15L15.38-6.77Q15.38-8.62 13.54-8.62L13.54-8.62 7.38-8.62 7.38-4.31 13.54-4.31Q15.38-4.31 15.38-6.15L15.38-6.15ZM14.46-14.77L14.46-15.38Q14.46-17.23 12.62-17.23L12.62-17.23 7.38-17.23 7.38-12.92 12.62-12.92Q14.46-12.92 14.46-14.77L14.46-14.77ZM35.38-8.62L22.77-8.62 22.77-12.92 35.38-12.92 35.38-8.62ZM46.77-17.23L46.77 0 41.23 0 41.23-17.23 34.77-17.23 34.77-21.54 53.23-21.54 53.23-17.23 46.77-17.23ZM72.46-4.31L72.46 0 55.38 0 55.38-21.54 72.46-21.54 72.46-17.23 60.92-17.23 60.92-13.08 70-13.08 70-8.77 60.92-8.77 60.92-4.31 72.46-4.31ZM93.69-21.54L93.69 0 87.85 0 80.46-12.92 80.46 0 74.92 0 74.92-21.54 80.77-21.54 88.15-8.62 88.15-21.54 93.69-21.54ZM97.38-21.54L109.38-21.54Q112.86-21.54 114.66-19.74 116.46-17.94 116.46-14.46L116.46-14.46 116.46-7.08Q116.46-3.6 114.66-1.8 112.86 0 109.38 0L109.38 0 97.38 0 97.38-21.54ZM110.92-7.08L110.92-14.46Q110.92-17.23 108.15-17.23L108.15-17.23 102.92-17.23 102.92-4.31 108.15-4.31Q110.92-4.31 110.92-7.08L110.92-7.08ZM136.62-4.31L136.62 0 119.54 0 119.54-21.54 136.62-21.54 136.62-17.23 125.08-17.23 125.08-13.08 134.15-13.08 134.15-8.77 125.08-8.77 125.08-4.31 136.62-4.31ZM139.08 0L139.08-21.54 152-21.54Q155.23-21.54 156.69-20.08 158.15-18.62 158.15-15.38L158.15-15.38 158.15-12.62Q158.15-10.06 157.31-8.65 156.46-7.23 154.62-6.77L154.62-6.77 158.46 0 152.46 0 148.92-6.46 144.62-6.46 144.62 0 139.08 0ZM152.62-12.62L152.62-15.38Q152.62-17.23 150.77-17.23L150.77-17.23 144.62-17.23 144.62-10.77 150.77-10.77Q152.62-10.77 152.62-12.62L152.62-12.62ZM160.58-0.31L160.58-4.46Q169.02-4 172-4L172-4Q172.71-4 173.12-4.42 173.54-4.83 173.54-5.54L173.54-5.54 173.54-8.31 166.46-8.31Q163.23-8.31 161.77-9.77 160.31-11.23 160.31-14.46L160.31-14.46 160.31-15.38Q160.31-18.62 161.77-20.08 163.23-21.54 166.46-21.54L166.46-21.54 177.26-21.54 177.26-17.23 167.69-17.23Q165.85-17.23 165.85-15.38L165.85-15.38 165.85-14.77Q165.85-12.92 167.69-12.92L167.69-12.92 173.23-12.92Q176.25-12.92 177.66-11.51 179.08-10.09 179.08-7.08L179.08-7.08 179.08-5.54Q179.08-2.52 177.66-1.11 176.25 0.31 173.23 0.31L173.23 0.31Q171.66 0.31 169.91 0.25L169.91 0.25 167.08 0.12Q163.94-0.03 160.58-0.31L160.58-0.31Z" transform="translate(-1.850000023841858, 21.540000915527344)"></path></g> <!----> <!----> <!----> <!----> <!----> <!----> <!----></g></g> <!----></g></g><defs v-gra="od"></defs></svg>